<svg width="64" height="69" viewBox="0 0 64 69" fill="none" xmlns="http://www.w3.org/2000/svg">
<ellipse cx="32" cy="54.5" rx="32" ry="14.5" fill="#435969"/>
<path d="M51 18.9C51 16.418 50.5086 13.9603 49.5537 11.6673C48.5989 9.37423 47.1993 7.29071 45.435 5.53568C43.6707 3.78065 41.5762 2.38849 39.271 1.43868C36.9658 0.488863 34.4951 0 32 0C29.5049 0 27.0342 0.488863 24.729 1.43868C22.4238 2.38849 20.3293 3.78065 18.565 5.53568C16.8007 7.29071 15.4011 9.37423 14.4463 11.6673C13.4914 13.9603 13 16.418 13 18.9C13 22.6449 14.1101 26.1279 15.9993 29.0655H15.9776L32 54L48.0224 29.0655H48.0034C49.9601 26.0323 51.0001 22.504 51 18.9ZM32 27C29.8404 27 27.7692 26.1466 26.2421 24.6276C24.715 23.1085 23.8571 21.0483 23.8571 18.9C23.8571 16.7517 24.715 14.6915 26.2421 13.1724C27.7692 11.6534 29.8404 10.8 32 10.8C34.1596 10.8 36.2308 11.6534 37.7579 13.1724C39.285 14.6915 40.1429 16.7517 40.1429 18.9C40.1429 21.0483 39.285 23.1085 37.7579 24.6276C36.2308 26.1466 34.1596 27 32 27Z" fill="#CCCCCC"/>
</svg>
