<svg width="25" height="25" viewBox="0 0 25 25" fill="none" xmlns="http://www.w3.org/2000/svg">
<path d="M21.875 19.7083V20.75H3.125V19.7083L5.20833 17.625V11.375C5.20833 8.14583 7.32292 5.30208 10.4167 4.38542V4.08333C10.4167 3.5308 10.6362 3.00089 11.0269 2.61019C11.4176 2.21949 11.9475 2 12.5 2C13.0525 2 13.5824 2.21949 13.9731 2.61019C14.3638 3.00089 14.5833 3.5308 14.5833 4.08333V4.38542C17.6771 5.30208 19.7917 8.14583 19.7917 11.375V17.625L21.875 19.7083ZM14.5833 21.7917C14.5833 22.3442 14.3638 22.8741 13.9731 23.2648C13.5824 23.6555 13.0525 23.875 12.5 23.875C11.9475 23.875 11.4176 23.6555 11.0269 23.2648C10.6362 22.8741 10.4167 22.3442 10.4167 21.7917" fill="#767676"/>
</svg>
