<svg width="19" height="22" viewBox="0 0 19 22" fill="none" xmlns="http://www.w3.org/2000/svg">
<path d="M18.875 17.7083V18.75H0.125V17.7083L2.20833 15.625V9.375C2.20833 6.14583 4.32292 3.30208 7.41667 2.38542V2.08333C7.41667 1.5308 7.63616 1.00089 8.02686 0.610194C8.41756 0.219493 8.94746 0 9.5 0C10.0525 0 10.5824 0.219493 10.9731 0.610194C11.3638 1.00089 11.5833 1.5308 11.5833 2.08333V2.38542C14.6771 3.30208 16.7917 6.14583 16.7917 9.375V15.625L18.875 17.7083ZM11.5833 19.7917C11.5833 20.3442 11.3638 20.8741 10.9731 21.2648C10.5824 21.6555 10.0525 21.875 9.5 21.875C8.94746 21.875 8.41756 21.6555 8.02686 21.2648C7.63616 20.8741 7.41667 20.3442 7.41667 19.7917" fill="#767676"/>
</svg>
