<svg width="50" height="31" viewBox="0 0 50 31" fill="none" xmlns="http://www.w3.org/2000/svg">
<path fill-rule="evenodd" clip-rule="evenodd" d="M1.38283e-05 2C1.38283e-05 0.89543 0.895444 0 2.00001 0H48C49.1046 0 50 0.89543 50 2L50 10.9412C47.5777 10.9412 45.614 12.9822 45.614 15.5C45.614 18.0178 47.5777 20.0588 50 20.0588L50 29C50 30.1046 49.1046 31 48 31H2.00001C0.895445 31 1.38283e-05 30.1046 1.38283e-05 29L0 20.0588C2.4223 20.0588 4.38596 18.0178 4.38596 15.5C4.38596 12.9822 2.42231 10.9412 1.38283e-05 10.9412V2Z" fill="#435969"/>
<path d="M18.522 23.132L28.642 6.94H31.04L20.876 23.132H18.522ZM14.804 11.076C14.804 8.612 16.674 6.676 19.094 6.676C21.47 6.676 23.362 8.612 23.362 11.076C23.362 13.54 21.47 15.476 19.094 15.476C16.674 15.476 14.804 13.54 14.804 11.076ZM17.004 11.076C17.004 12.308 17.906 13.298 19.094 13.298C20.26 13.298 21.184 12.308 21.184 11.076C21.184 9.844 20.26 8.876 19.094 8.876C17.906 8.876 17.004 9.844 17.004 11.076ZM26.002 18.864C26.002 16.4 27.872 14.464 30.292 14.464C32.668 14.464 34.56 16.4 34.56 18.864C34.56 21.328 32.668 23.286 30.292 23.286C27.872 23.286 26.002 21.328 26.002 18.864ZM28.202 18.864C28.202 20.096 29.104 21.086 30.292 21.086C31.458 21.086 32.382 20.096 32.382 18.864C32.382 17.632 31.458 16.664 30.292 16.664C29.104 16.664 28.202 17.632 28.202 18.864Z" fill="white"/>
</svg>
