<svg width="25" height="25" viewBox="0 0 25 25" fill="none" xmlns="http://www.w3.org/2000/svg">
<path d="M12.5002 1.14551C6.2291 1.14551 1.14551 6.2291 1.14551 12.5002C1.14551 18.7713 6.2291 23.8549 12.5002 23.8549C18.7713 23.8549 23.8549 18.7713 23.8549 12.5002C23.8549 6.2291 18.7713 1.14551 12.5002 1.14551ZM13.4807 18.6564V20.2557H11.951V18.6744C9.44082 18.3307 8.3416 16.2682 8.3416 16.2682L9.9041 14.9611C9.9041 14.9611 10.9018 16.6979 12.7064 16.6979C13.7033 16.6979 14.4596 16.1643 14.4596 15.2525C14.4596 13.1213 8.71738 13.3799 8.71738 9.42598C8.71738 7.70723 10.0768 6.46895 11.9502 6.17598V4.57832H13.4799V6.17598C14.7861 6.34785 16.333 7.03535 16.333 8.51426V9.64863H14.3049V9.09863C14.3049 8.53145 13.5822 8.15332 12.7736 8.15332C11.7424 8.15332 10.9869 8.66895 10.9869 9.39082C10.9869 11.5736 16.7291 11.0408 16.7291 15.1838C16.7291 16.8869 15.4572 18.3635 13.4807 18.6564Z" fill="#D7D7D7"/>
</svg>
