<svg width="176" height="177" viewBox="0 0 176 177" fill="none" xmlns="http://www.w3.org/2000/svg">
<path d="M77.7085 57.1885C69.555 42.3323 68.5493 33.6838 71.2368 17.8517" stroke="#FDD100" stroke-width="8"/>
<path d="M51.8359 60.2906C35.8562 46.0069 46.2295 32.3898 28.6456 25.645" stroke="#FDD100" stroke-width="8"/>
<path d="M54.9316 84.6685C38.3644 82.7329 30.1578 85.4056 16.4063 93.238" stroke="#FDD100" stroke-width="8"/>
<path d="M52.0107 0L55.2969 4.64738L59.9443 7.93355L55.2969 11.2197L52.0107 15.8671L48.7246 11.2197L44.0772 7.93355L48.7246 4.64738L52.0107 0Z" fill="#D7D7D7"/>
<path d="M7.93359 35.2622L11.2198 39.9096L15.8671 43.1958L11.2198 46.4819L7.93359 51.1293L4.64742 46.4819L4.03838e-05 43.1958L4.64742 39.9096L7.93359 35.2622Z" fill="#D7D7D7"/>
<path d="M31.9756 61.7085L35.2618 66.3559L39.9091 69.642L35.2618 72.9282L31.9756 77.5756L28.6894 72.9282L24.042 69.642L28.6894 66.3559L31.9756 61.7085Z" fill="#D7D7D7"/>
<path d="M138.453 130.081C140.005 133.892 136.547 137.841 132.564 136.806L56.3947 117.001C52.7949 116.065 51.4409 111.666 53.8912 108.868L100.373 55.7847C102.823 52.9865 107.362 53.7479 108.766 57.1926L138.453 130.081Z" fill="#435969"/>
<path d="M66.9604 123.151L117.064 65.0874" stroke="#F8F8F8" stroke-width="8"/>
</svg>
