<svg width="30" height="30" viewBox="0 0 30 30" fill="none" xmlns="http://www.w3.org/2000/svg">
<path d="M15 15C13.625 15 12.4479 14.5104 11.4688 13.5312C10.4896 12.5521 10 11.375 10 10C10 8.625 10.4896 7.44792 11.4688 6.46875C12.4479 5.48958 13.625 5 15 5C16.375 5 17.5521 5.48958 18.5312 6.46875C19.5104 7.44792 20 8.625 20 10C20 11.375 19.5104 12.5521 18.5312 13.5312C17.5521 14.5104 16.375 15 15 15ZM5 25V21.5C5 20.7917 5.1825 20.1408 5.5475 19.5475C5.9125 18.9542 6.39667 18.5008 7 18.1875C8.29167 17.5417 9.60417 17.0575 10.9375 16.735C12.2708 16.4125 13.625 16.2508 15 16.25C16.375 16.2492 17.7292 16.4108 19.0625 16.735C20.3958 17.0592 21.7083 17.5433 23 18.1875C23.6042 18.5 24.0888 18.9533 24.4538 19.5475C24.8188 20.1417 25.0008 20.7925 25 21.5V25H5Z" fill="#262626"/>
</svg>
