<svg width="29" height="29" viewBox="0 0 29 29" fill="none" xmlns="http://www.w3.org/2000/svg">
<g clip-path="url(#clip0_2214_863)">
<path d="M0.00341797 5.4375C0.00341797 4.47609 0.385337 3.55406 1.06516 2.87424C1.74498 2.19442 2.66701 1.8125 3.62842 1.8125H25.3784C26.3398 1.8125 27.2619 2.19442 27.9417 2.87424C28.6215 3.55406 29.0034 4.47609 29.0034 5.4375V23.5625C29.0034 24.5239 28.6215 25.4459 27.9417 26.1258C27.2619 26.8056 26.3398 27.1875 25.3784 27.1875H3.62842C2.66701 27.1875 1.74498 26.8056 1.06516 26.1258C0.385337 25.4459 0.00341797 24.5239 0.00341797 23.5625V5.4375ZM1.81592 21.75V23.5625C1.81592 24.0432 2.00688 24.5042 2.34679 24.8441C2.6867 25.184 3.14771 25.375 3.62842 25.375H25.3784C25.8591 25.375 26.3201 25.184 26.66 24.8441C27 24.5042 27.1909 24.0432 27.1909 23.5625V17.2188L20.3451 13.6898C20.1751 13.6047 19.9827 13.5751 19.795 13.6054C19.6073 13.6356 19.4339 13.7241 19.2993 13.8584L12.5749 20.5828L7.75367 17.371C7.5796 17.2551 7.3708 17.203 7.16268 17.2235C6.95456 17.2439 6.75993 17.3358 6.61179 17.4834L1.81592 21.75ZM10.8784 9.96875C10.8784 9.24769 10.592 8.55617 10.0821 8.0463C9.57225 7.53644 8.88072 7.25 8.15967 7.25C7.43861 7.25 6.74709 7.53644 6.23722 8.0463C5.72736 8.55617 5.44092 9.24769 5.44092 9.96875C5.44092 10.6898 5.72736 11.3813 6.23722 11.8912C6.74709 12.4011 7.43861 12.6875 8.15967 12.6875C8.88072 12.6875 9.57225 12.4011 10.0821 11.8912C10.592 11.3813 10.8784 10.6898 10.8784 9.96875Z" fill="#CCCCCC"/>
</g>
<defs>
<clipPath id="clip0_2214_863">
<rect width="29" height="29" fill="white"/>
</clipPath>
</defs>
</svg>
