<svg width="17" height="16" viewBox="0 0 17 16" fill="none" xmlns="http://www.w3.org/2000/svg">
<path fill-rule="evenodd" clip-rule="evenodd" d="M11.5767 6.9999C11.5767 7.59085 11.4596 8.17601 11.2319 8.72197C11.0042 9.26794 10.6706 9.76401 10.2499 10.1819C9.82927 10.5997 9.32989 10.9312 8.78028 11.1574C8.23068 11.3835 7.64162 11.4999 7.04673 11.4999C6.45184 11.4999 5.86278 11.3835 5.31317 11.1574C4.76357 10.9312 4.26418 10.5997 3.84354 10.1819C3.42289 9.76401 3.08921 9.26794 2.86155 8.72197C2.6339 8.17601 2.51673 7.59085 2.51673 6.9999C2.51673 5.80642 2.994 4.66183 3.84354 3.81792C4.69308 2.974 5.8453 2.4999 7.04673 2.4999C8.24816 2.4999 9.40038 2.974 10.2499 3.81792C11.0995 4.66183 11.5767 5.80642 11.5767 6.9999ZM10.7513 11.7399C9.5376 12.6759 8.01048 13.1172 6.48078 12.974C4.95108 12.8309 3.53381 12.114 2.51748 10.9693C1.50116 9.82461 0.962185 8.3382 1.01029 6.81265C1.05839 5.2871 1.68995 3.8371 2.7764 2.75785C3.86285 1.6786 5.32251 1.05122 6.85823 1.00343C8.39395 0.955648 9.89028 1.49105 11.0426 2.50065C12.1949 3.51024 12.9166 4.91813 13.0607 6.4377C13.2048 7.95726 12.7605 9.47427 11.8183 10.6799L14.6269 13.4699C14.7011 13.5386 14.7606 13.6214 14.8019 13.7134C14.8431 13.8054 14.8653 13.9047 14.8671 14.0054C14.8689 14.1061 14.8503 14.2061 14.8123 14.2995C14.7743 14.3929 14.7178 14.4777 14.6461 14.5489C14.5744 14.6202 14.489 14.6763 14.395 14.714C14.301 14.7517 14.2003 14.7703 14.0989 14.7685C13.9975 14.7667 13.8976 14.7447 13.8049 14.7037C13.7123 14.6627 13.629 14.6036 13.5599 14.5299L10.7513 11.7399Z" fill="#767676"/>
</svg>
