<svg width="63" height="63" viewBox="0 0 63 63" fill="none" xmlns="http://www.w3.org/2000/svg">
<path fill-rule="evenodd" clip-rule="evenodd" d="M31.5 7.875C31.8932 7.87525 32.2814 7.96383 32.6358 8.13421C32.9902 8.30459 33.3017 8.55242 33.5475 8.85938L44.0475 21.9844C44.2758 22.2518 44.4481 22.5623 44.5541 22.8976C44.6601 23.2328 44.6977 23.586 44.6646 23.936C44.6315 24.2861 44.5284 24.6259 44.3615 24.9354C44.1945 25.2448 43.9671 25.5176 43.6927 25.7375C43.4183 25.9573 43.1025 26.1198 42.7641 26.2153C42.4257 26.3108 42.0716 26.3373 41.7227 26.2933C41.3738 26.2493 41.0374 26.1357 40.7333 25.9591C40.4292 25.7826 40.1637 25.5468 39.9525 25.2656L34.125 17.9812V36.75C34.125 37.4462 33.8484 38.1139 33.3562 38.6062C32.8639 39.0984 32.1962 39.375 31.5 39.375C30.8038 39.375 30.1361 39.0984 29.6438 38.6062C29.1516 38.1139 28.875 37.4462 28.875 36.75V17.9812L23.0475 25.2683C22.8363 25.5494 22.5708 25.7852 22.2667 25.9618C21.9626 26.1383 21.6262 26.2519 21.2773 26.2959C20.9284 26.34 20.5743 26.3134 20.2359 26.2179C19.8975 26.1225 19.5817 25.96 19.3073 25.7401C19.0329 25.5202 18.8055 25.2475 18.6385 24.938C18.4716 24.6286 18.3685 24.2887 18.3354 23.9387C18.3023 23.5886 18.3399 23.2355 18.4459 22.9002C18.5519 22.5649 18.7242 22.2544 18.9525 21.987L29.4525 8.862C29.698 8.55456 30.0095 8.30624 30.3639 8.1354C30.7183 7.96455 31.1066 7.87556 31.5 7.875ZM23.625 36.75V34.125H13.125C11.7326 34.125 10.3973 34.6781 9.41269 35.6627C8.42812 36.6473 7.875 37.9826 7.875 39.375V49.875C7.875 51.2674 8.42812 52.6027 9.41269 53.5873C10.3973 54.5719 11.7326 55.125 13.125 55.125H49.875C51.2674 55.125 52.6027 54.5719 53.5873 53.5873C54.5719 52.6027 55.125 51.2674 55.125 49.875V39.375C55.125 37.9826 54.5719 36.6473 53.5873 35.6627C52.6027 34.6781 51.2674 34.125 49.875 34.125H39.375V36.75C39.375 38.8386 38.5453 40.8416 37.0685 42.3185C35.5916 43.7953 33.5886 44.625 31.5 44.625C29.4114 44.625 27.4084 43.7953 25.9315 42.3185C24.4547 40.8416 23.625 38.8386 23.625 36.75ZM44.625 42C43.9288 42 43.2611 42.2766 42.7688 42.7688C42.2766 43.2611 42 43.9288 42 44.625C42 45.3212 42.2766 45.9889 42.7688 46.4812C43.2611 46.9734 43.9288 47.25 44.625 47.25H44.6512C45.3474 47.25 46.0151 46.9734 46.5074 46.4812C46.9997 45.9889 47.2762 45.3212 47.2762 44.625C47.2762 43.9288 46.9997 43.2611 46.5074 42.7688C46.0151 42.2766 45.3474 42 44.6512 42H44.625Z" fill="#CCCCCC"/>
</svg>
