<svg width="13" height="13" viewBox="0 0 13 13" fill="none" xmlns="http://www.w3.org/2000/svg">
<path d="M0.947453 10.3064L5.92819 1.20558C5.98428 1.10287 6.06699 1.01715 6.16764 0.957438C6.26829 0.897723 6.38316 0.866211 6.50019 0.866211C6.61722 0.866211 6.73209 0.897723 6.83273 0.957438C6.93338 1.01715 7.0161 1.10287 7.07219 1.20558L12.0529 10.3064C12.1072 10.4056 12.1346 10.5171 12.1326 10.6301C12.1306 10.743 12.0991 10.8535 12.0414 10.9506C11.9837 11.0478 11.9016 11.1281 11.8033 11.1839C11.705 11.2396 11.5939 11.2688 11.4809 11.2684H1.51945C1.40647 11.2688 1.29535 11.2396 1.19707 11.1839C1.09878 11.1281 1.01672 11.0478 0.958978 10.9506C0.901233 10.8535 0.869801 10.743 0.86778 10.6301C0.865759 10.5171 0.893219 10.4056 0.947453 10.3064ZM7.19352 6.93338L7.54279 4.83778C7.5531 4.77573 7.54979 4.71217 7.53307 4.65154C7.51635 4.5909 7.48663 4.53462 7.44597 4.48663C7.40531 4.43863 7.35469 4.40006 7.29763 4.37359C7.24056 4.34713 7.17842 4.33341 7.11552 4.33338H5.88485C5.82195 4.33341 5.75981 4.34713 5.70274 4.37359C5.64568 4.40006 5.59506 4.43863 5.5544 4.48663C5.51374 4.53462 5.48402 4.5909 5.46731 4.65154C5.45059 4.71217 5.44727 4.77573 5.45759 4.83778L5.80685 6.93338H7.19352ZM7.45352 8.58004C7.45352 8.32721 7.35308 8.08472 7.17429 7.90594C6.99551 7.72715 6.75303 7.62671 6.50019 7.62671C6.24735 7.62671 6.00486 7.72715 5.82608 7.90594C5.64729 8.08472 5.54685 8.32721 5.54685 8.58004C5.54685 8.83288 5.64729 9.07537 5.82608 9.25415C6.00486 9.43294 6.24735 9.53338 6.50019 9.53338C6.75303 9.53338 6.99551 9.43294 7.17429 9.25415C7.35308 9.07537 7.45352 8.83288 7.45352 8.58004Z" fill="#FF5757"/>
</svg>
