<svg width="63" height="63" viewBox="0 0 63 63" fill="none" xmlns="http://www.w3.org/2000/svg">
<g clip-path="url(#clip0_2519_1157)">
<path d="M41.3438 33.4688C41.3438 36.0795 40.3066 38.5833 38.4606 40.4293C36.6145 42.2754 34.1107 43.3125 31.5 43.3125C28.8893 43.3125 26.3855 42.2754 24.5394 40.4293C22.6934 38.5833 21.6563 36.0795 21.6562 33.4688C21.6563 30.858 22.6934 28.3542 24.5394 26.5082C26.3855 24.6621 28.8893 23.625 31.5 23.625C34.1107 23.625 36.6145 24.6621 38.4606 26.5082C40.3066 28.3542 41.3438 30.858 41.3438 33.4688Z" fill="#CCCCCC"/>
<path d="M7.875 15.75C5.78642 15.75 3.78338 16.5797 2.30653 18.0565C0.829685 19.5334 0 21.5364 0 23.625L0 47.25C0 49.3386 0.829685 51.3416 2.30653 52.8185C3.78338 54.2953 5.78642 55.125 7.875 55.125H55.125C57.2136 55.125 59.2166 54.2953 60.6935 52.8185C62.1703 51.3416 63 49.3386 63 47.25V23.625C63 21.5364 62.1703 19.5334 60.6935 18.0565C59.2166 16.5797 57.2136 15.75 55.125 15.75H50.5103C48.4218 15.7496 46.4191 14.9196 44.9426 13.4426L41.6824 10.1824C40.2059 8.70542 38.2032 7.87545 36.1147 7.875H26.8853C24.7968 7.87545 22.7941 8.70542 21.3176 10.1824L18.0574 13.4426C16.5809 14.9196 14.5782 15.7496 12.4897 15.75H7.875ZM9.84375 23.625C9.3216 23.625 8.82085 23.4176 8.45163 23.0484C8.08242 22.6792 7.875 22.1784 7.875 21.6562C7.875 21.1341 8.08242 20.6333 8.45163 20.2641C8.82085 19.8949 9.3216 19.6875 9.84375 19.6875C10.3659 19.6875 10.8667 19.8949 11.2359 20.2641C11.6051 20.6333 11.8125 21.1341 11.8125 21.6562C11.8125 22.1784 11.6051 22.6792 11.2359 23.0484C10.8667 23.4176 10.3659 23.625 9.84375 23.625ZM45.2812 33.4688C45.2812 37.1238 43.8293 40.6291 41.2448 43.2136C38.6603 45.798 35.155 47.25 31.5 47.25C27.845 47.25 24.3397 45.798 21.7552 43.2136C19.1707 40.6291 17.7188 37.1238 17.7188 33.4688C17.7188 29.8137 19.1707 26.3084 21.7552 23.7239C24.3397 21.1395 27.845 19.6875 31.5 19.6875C35.155 19.6875 38.6603 21.1395 41.2448 23.7239C43.8293 26.3084 45.2812 29.8137 45.2812 33.4688Z" fill="#CCCCCC"/>
</g>
<defs>
<clipPath id="clip0_2519_1157">
<rect width="63" height="63" fill="white"/>
</clipPath>
</defs>
</svg>
